<?xml version="1.0" encoding="UTF-8" standalone="no"?>
<!-- Created with Inkscape (http://www.inkscape.org/) -->

<svg
   width="210mm"
   height="297mm"
   viewBox="0 0 210 297"
   version="1.1"
   id="svg1"
   inkscape:version="1.4 (86a8ad7, 2024-10-11)"
   sodipodi:docname="algae.svg"
   xmlns:inkscape="http://www.inkscape.org/namespaces/inkscape"
   xmlns:sodipodi="http://sodipodi.sourceforge.net/DTD/sodipodi-0.dtd"
   xmlns="http://www.w3.org/2000/svg"
   xmlns:svg="http://www.w3.org/2000/svg">
  <sodipodi:namedview
     id="namedview1"
     pagecolor="#ffffff"
     bordercolor="#000000"
     borderopacity="0.25"
     inkscape:showpageshadow="2"
     inkscape:pageopacity="0.0"
     inkscape:pagecheckerboard="0"
     inkscape:deskcolor="#d1d1d1"
     inkscape:document-units="mm"
     inkscape:zoom="0.74016561"
     inkscape:cx="-66.876925"
     inkscape:cy="542.44617"
     inkscape:window-width="2560"
     inkscape:window-height="1377"
     inkscape:window-x="1042"
     inkscape:window-y="-8"
     inkscape:window-maximized="1"
     inkscape:current-layer="layer1" />
  <defs
     id="defs1" />
  <g
     inkscape:label="Livello 1"
     inkscape:groupmode="layer"
     id="layer1">
    <g
       id="g17">
      <path
         style="opacity:1;fill:#80130b;fill-opacity:0.649839;stroke-width:0.153;stroke-linecap:round;stroke-linejoin:round;stroke-miterlimit:2.9"
         d="m 69.510637,179.7166 6.824681,-20.47405 c 0,0 -8.479855,-18.50346 -16.682553,-23.50723 -4.577508,-2.79235 -15.286061,3.04897 -15.924255,-2.27489 -0.378027,-3.15353 8.356579,-0.40069 8.84681,-3.53873 0.387971,-2.48346 -4.953251,-2.4408 -5.813618,-4.80255 -1.436778,-3.94402 2.641651,-8.20401 2.274892,-12.38553 -0.400657,-4.568 -2.202473,-9.11394 -4.802552,-12.891067 -1.590962,-2.311187 -7.59028,-3.059457 -6.319149,-5.560851 0.351912,-0.69251 1.932334,1.202714 2.274895,0.505531 0.580394,-1.181224 -3.148594,-1.216619 -3.033193,-2.52766 0.05956,-0.676672 1.091387,-1.053272 1.769363,-1.011063 1.261387,0.07853 1.902788,2.840095 3.033191,2.274893 0.979683,-0.489842 0.687338,-2.433145 0,-3.285958 -1.244463,-1.544065 -4.957198,0.524848 -5.813617,-1.26383 -0.244083,-0.50978 0.277508,-1.21945 0.758297,-1.516594 0.716719,-0.442957 1.959494,0.62216 2.52766,0 0.62756,-0.687199 0.434432,-2.152867 -0.252767,-2.780427 -0.559944,-0.511349 -1.723177,0.520216 -2.274893,0 -1.043932,-0.984329 -1.27129,-3.286424 -0.252766,-4.297021 0.899138,-0.892141 2.576603,-0.105585 3.791489,0.252767 2.496063,0.736258 5.312173,1.673772 6.824681,3.791489 1.392829,1.95015 0.866292,4.714181 1.26383,7.077446 0.268847,1.598229 -0.824829,4.455675 0.758298,4.802552 2.373977,0.52016 1.673167,-5.533205 4.044254,-6.066382 0.95864,-0.215566 2.054268,0.655575 2.52766,1.516597 1.624226,2.954204 0.04354,6.752419 -0.252764,10.110638 -0.344566,3.90519 -2.360695,7.75173 -1.769361,11.62724 0.579748,3.79958 1.248806,10.89575 5.055316,10.3634 3.813822,-0.53338 -1.81273,-11.02292 2.022129,-11.37447 2.867487,-0.26287 1.923566,5.43138 3.033191,8.08851 0.929741,2.22637 0.74572,7.33914 3.033191,6.57192 4.496862,-1.50826 -2.37311,-9.20523 -3.033191,-13.90213 -1.092751,-7.77563 1.645655,-16.32012 -1.516594,-23.507237 -2.30389,-5.236248 -9.745955,-7.077797 -11.880001,-12.385532 -1.225795,-3.048761 -3.21885,-9.197177 0,-9.857872 0.628565,-0.129018 0.124533,1.869764 0.758299,1.769362 1.838335,-0.291233 -1.106121,-4.629792 0.505531,-5.560851 1.044572,-0.603454 2.30818,0.810028 3.285958,1.516596 4.30016,3.107409 8.094793,7.1049 10.868935,11.627234 2.578323,4.203116 4.065384,9.071605 5.05532,13.902129 0.609886,2.976018 3.477535,8.470419 0.505531,9.099574 -6.521763,1.380617 -4.601841,-12.515105 -7.077447,-18.704682 -2.173416,-5.434035 -5.088797,-10.587819 -6.824681,-16.177022 -0.867492,-2.793153 -3.299968,-6.101756 -1.769362,-8.594042 1.005475,-1.637216 3.923999,-2.522662 5.560851,-1.516594 2.857739,1.756468 0.168682,7.062057 2.022129,9.857872 0.903933,1.363529 2.646531,3.630528 4.044254,2.780424 2.321492,-1.411947 -0.349986,-5.453005 -1.011063,-8.088511 -0.57104,-2.276555 -2.802941,-4.241032 -2.52766,-6.571914 0.191874,-1.624651 1.150093,-4.179605 2.780427,-4.044254 4.169676,0.346168 4.282302,7.318139 5.308084,11.374467 0.351769,1.391027 -1.178905,4.202085 0.252767,4.297021 2.654557,0.176026 -0.631109,-6.265701 1.516594,-7.835744 1.164288,-0.851134 3.338646,-0.572203 4.297021,0.505532 1.959611,2.203668 0.360311,5.919967 0,8.846809 -0.212228,1.723953 -1.258298,3.318359 -1.26383,5.055317 -0.01022,3.208331 -0.910645,9.734205 2.274896,9.352341 6.106917,-0.732061 -2.255468,-12.729746 0,-18.451915 1.267899,-3.216687 3.710738,-8.370332 7.077445,-7.582977 3.426159,0.801259 2.777535,6.601332 3.033191,10.110637 0.210381,2.887838 -0.752524,5.744053 -1.263829,8.594042 -1.505732,8.392873 -3.111603,16.784716 -5.308084,25.023831 -1.413913,5.303659 -9.083581,11.943069 -5.05532,15.671489 2.606595,2.41257 7.976725,-1.03159 9.857872,-4.04425 2.057116,-3.29448 -4.132867,-9.704329 -0.758298,-11.627239 1.685298,-0.960323 3.327217,4.545259 4.802555,3.285959 2.694602,-2.300018 -2.999223,-6.419718 -4.549788,-9.605108 -1.566706,-3.218549 -4.125622,-6.090085 -4.802553,-9.605108 -0.959312,-4.981309 -0.444364,-10.389368 1.26383,-15.165956 1.998937,-5.589587 4.312552,-15.933783 10.110637,-14.660425 4.342914,0.953778 -2.084143,12.266684 2.274895,13.143828 3.528657,0.710051 2.273389,-9.74951 5.813612,-9.099574 2.03159,0.372972 -0.74664,5.592576 1.26383,6.066383 1.98522,0.467857 1.84207,-5.402357 3.79149,-4.802553 2.26058,0.695542 -0.98516,5.241197 0.50553,7.077448 0.7732,0.95244 2.67898,0.135958 3.53873,1.011063 0.91667,0.933039 0.95827,2.484562 1.01106,3.79149 0.038,0.941235 -0.0991,1.930611 -0.50553,2.780424 -1.05672,2.209514 -2.96643,3.939959 -4.80255,5.560851 -1.82194,1.608377 -7.226172,1.908549 -6.06639,4.044257 2.53949,4.676401 9.64303,-8.092144 14.66042,-6.31915 1.70568,0.602734 2.50882,2.993613 2.52766,4.802553 0.01,0.941952 -0.59278,1.866551 -1.26383,2.527659 -1.79861,1.771965 -4.63575,2.027599 -6.82467,3.285959 -2.99842,1.723722 -6.94858,2.771543 -8.59404,5.813615 -2.565786,4.743542 1.5591,11.097494 -0.25277,16.177024 -1.73298,4.85836 -7.151652,7.59543 -9.605107,12.13277 -1.900945,3.51555 -1.172923,8.35524 -3.79149,11.37447 -3.826653,4.41217 -15.671488,7.83574 -15.671488,7.83574 l 7.58298,15.16596 c 0,0 2.024299,-9.70966 5.055317,-13.3966 1.826276,-2.22149 7.330215,-4.54978 7.330215,-4.54978 0,0 -2.257243,-7.10709 -0.252767,-9.60511 1.933872,-2.41003 6.962265,0.46224 9.09957,-1.76936 5.89301,-6.15299 -4.504141,-23.33511 3.79149,-25.2766 3.29995,-0.772312 2.45093,8.76368 5.81362,8.34128 1.42853,-0.17944 1.1119,-2.66255 1.5166,-4.04426 0.3391,-1.15771 0.29398,-2.4253 0.75829,-3.53872 1.00738,-2.415718 2.75799,-4.454869 4.29702,-6.571918 2.29026,-3.150427 4.13154,-6.8772 7.33021,-9.099574 1.75049,-1.216201 4.78595,-3.72619 6.06639,-2.022129 1.78301,2.372906 -7.25712,5.339765 -5.05532,7.330213 1.6406,1.483114 2.97067,-5.035559 5.05532,-4.297021 1.29284,0.458021 1.11307,2.719356 0.75829,4.044254 -1.20558,4.502155 -12.32705,7.25371 -9.09957,10.616175 3.86356,4.02515 8.0888,-8.002131 13.14383,-10.363408 3.35365,-1.566538 7.17138,-2.445425 10.86894,-2.274893 3.43434,0.158392 9.5204,-0.388194 9.85787,3.033191 0.46996,4.764628 -8.47166,4.466363 -12.6383,6.824681 -2.30128,1.302526 -4.47502,2.831169 -6.82468,4.044259 -1.4747,0.76136 -5.14992,0.47479 -4.54979,2.02212 1.15614,2.98091 6.28714,-1.51243 9.09958,-3.03319 2.26867,-1.226727 3.89932,-6.200969 6.06638,-4.802553 1.45947,0.941806 -0.32032,3.596949 -1.26383,5.055323 -1.92275,2.97198 -5.41885,4.57465 -8.34128,6.57191 -2.74395,1.87529 -10.12953,2.10773 -8.59404,5.05532 1.49802,2.87567 6.07362,-5.72442 8.84681,-4.04425 1.37106,0.83067 0.63315,3.24527 0.25277,4.80255 -0.39431,1.61431 -1.41241,3.06507 -2.52766,4.29702 -1.82091,2.01145 -5.16695,2.48142 -6.57192,4.80256 -1.7647,2.91543 -3.86633,7.64231 -1.5166,10.11064 2.91916,3.0665 9.89834,1.96379 12.6383,-1.26383 3.44213,-4.05477 -3.82907,-11.41336 -1.01106,-15.92426 0.8207,-1.31373 2.94648,-2.52798 4.29702,-1.76936 2.82604,1.58743 -1.72476,9.6077 1.5166,9.6051 2.72888,-0.002 -1.40968,-7.54155 1.26383,-8.08851 0.77873,-0.15932 0.4898,2.20293 1.26383,2.02213 1.64912,-0.3852 -0.18627,-3.50955 0.50553,-5.05532 0.56029,-1.25192 1.50215,-3.53042 2.78042,-3.03319 3.37653,1.31341 -2.01597,7.85865 0,10.86894 0.86193,1.28706 3.0415,2.67662 4.29702,1.76936 2.87553,-2.07792 -3.87291,-8.91747 -0.75829,-10.61617 1.84923,-1.00856 4.11332,1.90748 5.05532,3.79149 1.54488,3.08977 0.52116,6.94847 0,10.3634 -0.42615,2.79242 -1.11393,5.64298 -2.52766,8.08851 -1.49206,2.58102 -6.06639,6.57192 -6.06639,6.57192 0,0 -9.75603,4.86486 -14.91319,6.57191 -4.67635,1.5479 -9.50953,3.80809 -14.40766,3.28596 -4.16045,-0.44349 -7.19222,-5.18606 -11.37446,-5.30808 -7.06892,-0.20624 -14.595762,2.95743 -19.715747,7.83574 -3.685315,3.51136 -6.319147,13.90213 -6.319147,13.90213 l -14.154893,24.26553 -2.52766,0.25277 z"
         id="path1"
         sodipodi:nodetypes="ccaaaaaaaaaaaaaaaaaaaaaaaaaaaaaaaaaaaaaaaaaaaaaaaaaaaaaaaaaaaaaaaaaaaaaaaaaaaaaaaaaaaaaaaccacaaaaaaaaaaaaaaaaaaaaaaaaaaaaaaaaaaaaaaaaaaacaaaacccc" />
      <path
         d="m 87.912463,55.539246 c -2.03532,3.246082 -3.324776,8.158981 -4.499467,11.443746 -1.708194,4.776588 -2.223317,10.18469 -1.264005,15.165999 0.429268,2.229011 1.618829,4.198352 2.828768,6.162414 1.099106,-5.065676 2.069773,-10.161632 2.984831,-15.262117 0.511305,-2.849989 1.474386,-5.705953 1.264005,-8.593791 -0.199171,-2.73396 0.141657,-6.848395 -1.314132,-8.916251 z"
         style="opacity:1;fill:#80130b;fill-opacity:0.649839;stroke-width:0.153;stroke-linecap:round;stroke-linejoin:round;stroke-miterlimit:2.9"
         id="path5" />
      <path
         d="m 58.793827,68.229427 c 1.706478,4.367553 3.918298,8.549429 5.66167,12.908256 2.475606,6.189577 0.555325,20.085417 7.077088,18.704802 2.972004,-0.629155 0.10449,-6.123685 -0.505396,-9.099703 -0.989936,-4.830524 -2.477182,-9.698878 -5.055505,-13.901994 -1.946981,-3.173917 -4.403578,-6.080748 -7.177857,-8.611361 z"
         style="opacity:1;fill:#80130b;fill-opacity:0.468314;stroke-width:0.153;stroke-linecap:round;stroke-linejoin:round;stroke-miterlimit:2.9"
         id="path15" />
      <path
         d="m 87.912463,55.539246 c -2.03532,3.246082 -3.324776,8.158981 -4.499467,11.443746 -1.708194,4.776588 -2.223317,10.18469 -1.264005,15.165999 0.429268,2.229011 1.618829,4.198352 2.828768,6.162414 1.099106,-5.065676 2.069773,-10.161632 2.984831,-15.262117 0.511305,-2.849989 1.474386,-5.705953 1.264005,-8.593791 -0.199171,-2.73396 0.141657,-6.848395 -1.314132,-8.916251 z"
         style="opacity:0.45020747;fill:#80110b;fill-opacity:0.81568629;stroke-width:0.153;stroke-linecap:round;stroke-linejoin:round;stroke-miterlimit:2.9"
         id="path16" />
      <path
         d="m 146.89129,96.608573 c -0.0814,-0.108926 -0.15689,-0.221061 -0.2868,-0.304891 -1.08427,-0.699685 -2.03443,0.196169 -2.99723,1.419552 0.97863,-0.43738 2.0863,-0.801645 3.28403,-1.114661 z"
         style="opacity:0.78215768;fill:#80110b;fill-opacity:0.81568629;stroke-width:0.153;stroke-linecap:round;stroke-linejoin:round;stroke-miterlimit:2.9"
         id="path14" />
      <path
         d="m 66.730294,48.783586 c -1.630334,-0.135351 -2.588835,2.420063 -2.780709,4.044714 -0.275281,2.330882 1.956971,4.295137 2.528011,6.571692 0.661077,2.635506 3.332283,6.676448 1.010791,8.088395 -1.397723,0.850104 -3.140265,-1.416663 -4.044198,-2.780192 -1.853447,-2.795815 0.835641,-8.101328 -2.022098,-9.857796 -1.636852,-1.006068 -4.555426,-0.12103 -5.560901,1.516186 -1.530606,2.492286 0.901909,5.801155 1.769401,8.594308 0.343471,1.10591 0.742293,2.191173 1.163236,3.268534 2.774279,2.530613 5.230876,5.437444 7.177857,8.611361 2.578323,4.203116 4.065569,9.07147 5.055505,13.901994 0.609886,2.976018 3.4774,8.470548 0.505396,9.099703 -6.521763,1.380615 -4.601482,-12.515225 -7.077088,-18.704802 -1.743372,-4.358827 -3.955192,-8.540703 -5.66167,-12.908256 -1.178634,-1.075114 -2.408558,-2.089305 -3.69073,-3.015837 -0.977778,-0.706568 -2.241533,-2.120157 -3.286105,-1.516703 -1.611652,0.931059 1.33294,5.269668 -0.505395,5.560901 -0.633766,0.100402 -0.130045,-1.898419 -0.75861,-1.769401 -3.21885,0.660695 -1.225795,6.809035 0,9.857796 2.134046,5.307735 9.576521,7.14956 11.880411,12.385808 3.162249,7.187117 0.423436,15.731459 1.516187,23.507089 0.660081,4.6969 7.530269,12.39374 3.033407,13.902 -2.287471,0.76722 -2.103666,-4.34533 -3.033407,-6.5717 -1.109625,-2.65713 -0.165403,-8.35126 -3.03289,-8.08839 -3.834859,0.35155 1.791723,10.84112 -2.022099,11.3745 -3.80651,0.53235 -4.475757,-6.56413 -5.055505,-10.36371 -0.591334,-3.87551 1.424835,-7.72201 1.769401,-11.6272 0.296304,-3.35821 1.876924,-7.156287 0.252698,-10.110491 -0.473392,-0.861022 -1.568855,-1.732269 -2.527495,-1.516703 -2.371087,0.533177 -1.67022,6.586456 -4.044197,6.066296 -1.583127,-0.346877 -0.489763,-3.204061 -0.75861,-4.80229 -0.397538,-2.363265 0.12934,-5.127455 -1.263489,-7.077605 -1.512508,-2.117717 -4.328843,-3.055241 -6.824906,-3.791499 -1.214886,-0.358352 -2.892362,-1.144839 -3.7915,-0.252698 -1.018524,1.010597 -0.791234,3.312566 0.252698,4.296895 0.551716,0.520216 1.714852,-0.511349 2.274796,0 0.687199,0.62756 0.880775,2.09351 0.253215,2.780709 -0.568166,0.62216 -1.811292,-0.442957 -2.528011,0 -0.480789,0.297144 -1.002177,1.006407 -0.758094,1.516187 0.856419,1.788678 4.569136,-0.28006 5.813599,1.264005 0.687338,0.852813 0.979683,2.796262 0,3.286104 -1.130403,0.565202 -1.77202,-2.196266 -3.033407,-2.274796 -0.677976,-0.04221 -1.709841,0.334119 -1.769401,1.010791 -0.115401,1.311041 3.613801,1.34627 3.033407,2.527494 -0.342561,0.697183 -1.922885,-1.197905 -2.274797,-0.505395 -1.271131,2.501394 4.728033,3.249714 6.318995,5.560901 2.600079,3.777125 4.40215,8.323205 4.802807,12.891205 0.366759,4.18152 -3.712091,8.44127 -2.275313,12.38529 0.860367,2.36175 6.201569,2.31935 5.813598,4.80281 -0.490231,3.13804 -9.224515,0.38527 -8.846488,3.5388 0.638194,5.32386 11.346585,-0.51756 15.924093,2.27479 8.202698,5.00377 16.682702,23.5071 16.682702,23.5071 l -6.824906,20.4742 -2.780192,11.3745 2.527494,-0.2527 14.155208,-24.2657 c 0,0 2.63368,-10.39064 6.318995,-13.902 5.119985,-4.87831 12.646669,-8.04193 19.715589,-7.83569 4.18224,0.12202 7.21405,4.86419 11.3745,5.30768 4.89813,0.52213 9.73156,-1.73768 14.40791,-3.28558 5.15716,-1.70705 14.91278,-6.57221 14.91278,-6.57221 0,0 4.57476,-3.99067 6.06682,-6.57169 1.41373,-2.44553 2.10134,-5.29598 2.52749,-8.0884 0.52116,-3.41493 1.54488,-7.27394 0,-10.36371 -0.942,-1.88401 -3.20627,-4.80006 -5.0555,-3.7915 -3.11462,1.6987 3.63414,8.53849 0.75861,10.61641 -1.25552,0.90726 -3.43549,-0.48234 -4.29742,-1.7694 -2.01597,-3.01029 3.37653,-9.5557 0,-10.86911 -1.27827,-0.49723 -2.2199,1.78149 -2.78019,3.03341 -0.6918,1.54577 1.14373,4.66979 -0.50539,5.05499 -0.77403,0.1808 -0.48528,-2.18142 -1.26401,-2.0221 -2.67351,0.54696 1.46487,8.08691 -1.26401,8.08891 -3.24136,0.003 1.30986,-8.01767 -1.51618,-9.6051 -1.35054,-0.75862 -3.47671,0.45516 -4.29741,1.76889 -2.81801,4.5109 4.45343,11.86984 1.0113,15.92461 -2.73996,3.22762 -9.71934,4.32999 -12.6385,1.26349 -2.34973,-2.46833 -0.248,-7.19507 1.5167,-10.1105 1.40497,-2.32114 4.75078,-2.79084 6.57169,-4.80229 1.11525,-1.23195 2.13371,-2.6831 2.52802,-4.29741 0.38038,-1.55728 1.11836,-3.97162 -0.2527,-4.80229 -2.77319,-1.68017 -7.34899,6.91987 -8.84701,4.0442 -1.53549,-2.94759 5.85036,-3.18022 8.59431,-5.05551 2.92243,-1.99726 6.41834,-3.59971 8.34109,-6.57169 0.85953,-1.32857 2.38447,-3.635785 1.55081,-4.750617 -1.19773,0.313016 -2.3054,0.677281 -3.28403,1.114661 -0.96149,1.221712 -1.93603,2.770316 -3.06959,3.383256 -2.81244,1.52076 -7.94304,6.0138 -9.09918,3.03289 -0.60013,-1.54733 3.07489,-1.26074 4.54959,-2.0221 2.34966,-1.21309 4.52363,-2.741671 6.82491,-4.044197 0.23523,-0.133143 0.53114,-0.232251 0.79427,-0.349849 0.9628,-1.223383 1.91296,-2.119237 2.99723,-1.419552 0.12991,0.08383 0.20535,0.195965 0.2868,0.304891 4.18426,-1.093513 8.90443,-1.864726 8.55969,-5.359879 -0.33747,-3.421385 -6.42346,-2.875015 -9.8578,-3.033407 -3.69756,-0.170532 -7.51545,0.708259 -10.8691,2.274797 -5.05503,2.361277 -9.28034,14.388856 -13.1439,10.363706 -3.22748,-3.362459 7.89412,-6.114249 9.0997,-10.616404 0.35478,-1.324898 0.53475,-3.586177 -0.75809,-4.044198 -2.08465,-0.738538 -3.41491,5.78001 -5.05551,4.296896 -2.2018,-1.990448 6.83852,-4.957396 5.05551,-7.330302 -1.28044,-1.704061 -4.31581,0.805898 -6.0663,2.022099 -3.19867,2.222374 -5.04004,5.949276 -7.3303,9.099703 -1.53903,2.117049 -3.28952,4.156494 -4.2969,6.572206 -0.46431,1.11342 -0.41951,2.38109 -0.75861,3.5388 -0.4047,1.38171 -0.0882,3.86476 -1.5167,4.0442 -3.36269,0.4224 -2.51365,-9.113916 -5.8136,-8.34161 -1.92099,0.44959 -2.81297,1.73959 -3.16363,3.49746 0.12493,1.27358 0.14199,2.52625 -0.12816,3.71812 0.49994,6.04997 3.18615,14.21245 -0.49971,18.06092 -2.137305,2.2316 -7.165314,-0.64063 -9.099186,1.7694 -2.004476,2.49802 0.252698,9.6051 0.252698,9.6051 0,0 -5.504026,2.32861 -7.330302,4.5501 -3.031018,3.68694 -5.055506,13.3966 -5.055506,13.3966 l -7.582999,-15.166 c 0,0 11.845258,-3.42352 15.671911,-7.83569 2.618567,-3.01923 1.890555,-7.85895 3.7915,-11.3745 2.453455,-4.53734 7.872129,-7.27475 9.605094,-12.13311 0.10229,-0.28675 0.17978,-0.57847 0.2465,-0.87282 -0.11428,-1.38293 -0.0883,-2.63278 0.12816,-3.71812 -0.39078,-3.983548 -1.956408,-8.194372 -0.12196,-11.585853 1.64546,-3.042072 5.59537,-4.089877 8.59379,-5.813599 2.18892,-1.25836 5.0263,-1.514139 6.82491,-3.286104 0.67105,-0.661108 1.27349,-1.585542 1.26349,-2.527494 -0.0188,-1.80894 -0.82182,-4.200074 -2.5275,-4.802808 -5.01739,-1.772994 -12.12111,10.995912 -14.6606,6.319511 -1.159782,-2.135708 4.24487,-2.43582 6.06681,-4.044197 1.83612,-1.620892 3.74557,-3.351387 4.80229,-5.560901 0.40643,-0.849813 0.5434,-1.839474 0.5054,-2.780709 -0.0528,-1.306928 -0.0941,-2.858461 -1.01079,-3.7915 -0.85975,-0.875105 -2.7656,-0.05835 -3.5388,-1.010791 -1.49069,-1.836251 1.75518,-6.382062 -0.5054,-7.077604 -1.94942,-0.599804 -1.80628,5.270664 -3.7915,4.802807 -2.01047,-0.473807 0.76759,-5.693841 -1.264,-6.066813 -3.540235,-0.649936 -2.284946,9.809754 -5.813603,9.099703 -4.359038,-0.877144 2.068117,-12.190122 -2.274797,-13.1439 -2.390795,-0.525059 -4.182902,0.939177 -5.611027,3.216858 1.455789,2.067856 1.114961,6.182291 1.314132,8.916251 0.210381,2.887838 -0.7527,5.743802 -1.264005,8.593791 -0.915058,5.100485 -1.885725,10.196441 -2.984831,15.262117 0.698066,1.133153 1.400325,2.26514 1.973523,3.442684 1.550565,3.18539 7.244712,7.305077 4.55011,9.605101 -1.475338,1.2593 -3.11751,-4.24643 -4.802808,-3.286107 -3.374569,1.92291 2.815726,8.332717 0.75861,11.627197 -1.881147,3.01266 -7.251201,6.45677 -9.857796,4.0442 -4.028261,-3.72842 3.641075,-10.36774 5.054988,-15.671397 0.861644,-3.232071 1.613894,-6.491758 2.323373,-9.761678 -1.209939,-1.964062 -2.3995,-3.933403 -2.828768,-6.162414 -0.959312,-4.981309 -0.444189,-10.389411 1.264005,-15.165999 1.174691,-3.284765 2.464147,-8.197664 4.499467,-11.443746 -0.412858,-0.586439 -0.9623,-1.01773 -1.719275,-1.19476 -3.366707,-0.787355 -5.809705,4.366313 -7.077604,7.583 -2.255468,5.722169 6.106917,17.720043 0,18.452104 -3.185541,0.381864 -2.285016,-6.14407 -2.274796,-9.352401 0.0055,-1.736958 1.051777,-3.331552 1.264005,-5.055505 0.360311,-2.926842 1.959611,-6.642821 0,-8.846489 -0.958375,-1.077735 -3.132607,-1.356529 -4.296895,-0.505395 -2.147703,1.570043 1.137854,8.011723 -1.516703,7.835697 -1.431672,-0.09494 0.09907,-2.906385 -0.252698,-4.297412 C 71.012715,56.101757 70.89997,49.129754 66.730294,48.783586 Z"
         style="opacity:0.99688797;fill:#80130b;fill-opacity:0.468314;stroke-width:0.153;stroke-linecap:round;stroke-linejoin:round;stroke-miterlimit:2.9"
         id="path12" />
      <path
         d="m 58.793827,68.229427 c 1.706478,4.367553 3.918298,8.549429 5.66167,12.908256 2.475606,6.189577 0.555325,20.085417 7.077088,18.704802 2.972004,-0.629155 0.10449,-6.123685 -0.505396,-9.099703 -0.989936,-4.830524 -2.477182,-9.698878 -5.055505,-13.901994 -1.946981,-3.173917 -4.403578,-6.080748 -7.177857,-8.611361 z"
         style="opacity:0.45020747;fill:#80110b;fill-opacity:0.81568629;stroke-width:0.153;stroke-linecap:round;stroke-linejoin:round;stroke-miterlimit:2.9"
         id="path3" />
      <path
         style="opacity:1;fill:#80110b;fill-opacity:0.815686;stroke-width:0.153;stroke-linecap:round;stroke-linejoin:round;stroke-miterlimit:2.9"
         d="m 71.194649,174.71957 c -0.0796,0.14673 -0.588333,2.11156 -0.749837,2.12676 -1.959969,0.18448 -6.976853,-0.40333 -8.600554,-2.22665 -0.277352,-0.31145 -0.307954,-0.9699 0,-1.25113 0.971846,-0.8875 3.424745,1.57185 3.932115,0.35747 0.961626,-2.30163 -3.762638,-3.2788 -5.719442,-4.82578 -2.90707,-2.29823 -8.04861,-3.01527 -8.936625,-6.6131 -0.459738,-1.86265 1.371341,-3.63345 2.502255,-5.18324 0.968797,-1.32762 1.976638,-3.77999 3.57465,-3.39592 1.044309,0.25099 0.0096,3.19329 1.072396,3.03845 0.409237,-0.0596 -0.29709,-1.0339 0.06196,-1.23912 1.191262,-0.68089 3.646743,1.90937 3.646743,1.90937"
         id="path17"
         sodipodi:nodetypes="cssaaaaaaaac" />
    </g>
  </g>
</svg>
